<?xml version="1.0" encoding="UTF-8" standalone="no"?>
<!-- Created with Inkscape (http://www.inkscape.org/) -->

<svg version="1.1" id="svg5159" xml:space="preserve" width="1067.0024" height="176.88126" viewBox="0 0 1067.0024 176.88125" sodipodi:docname="logo.svg" inkscape:version="1.1 (c68e22c387, 2021-05-23)" xmlns:inkscape="http://www.inkscape.org/namespaces/inkscape" xmlns:sodipodi="http://sodipodi.sourceforge.net/DTD/sodipodi-0.dtd" xmlns="http://www.w3.org/2000/svg" xmlns:svg="http://www.w3.org/2000/svg">
  <defs id="defs5163">
    <clipPath clipPathUnits="userSpaceOnUse" id="clipPath5175">
      <path d="M 0,595.276 H 841.89 V 0 H 0 Z" id="path5173" />
    </clipPath>
  </defs>
  <sodipodi:namedview id="namedview5161" pagecolor="#505050" bordercolor="#ffffff" borderopacity="1" inkscape:pageshadow="0" inkscape:pageopacity="0" inkscape:pagecheckerboard="1" showgrid="false" inkscape:zoom="0.9852831" inkscape:cx="332.39178" inkscape:cy="215.67405" inkscape:window-width="2560" inkscape:window-height="1387" inkscape:window-x="-8" inkscape:window-y="127" inkscape:window-maximized="1" inkscape:current-layer="g5165" fit-margin-top="0" fit-margin-left="0" fit-margin-right="0" fit-margin-bottom="0" />
  <g id="g5165" inkscape:groupmode="layer" inkscape:label="MARVIN_Final1" transform="matrix(1.3333333,0,0,-1.3333333,-45.907169,734.99313)">
    <g id="g5169" transform="matrix(2.2269459,0,0,2.2269459,-501.6318,-181.36177)">
      <g id="g5171" clip-path="url(#clipPath5175)">
        <g id="g5177" transform="translate(240.7163,270.3811)">
          <path d="M 0,0 V 57.727 H 17.477 V 47.13 h 0.638 c 1.204,3.507 3.238,6.275 6.108,8.306 2.87,2.029 6.27,3.044 10.205,3.044 4.008,0 7.441,-1.028 10.297,-3.082 2.856,-2.055 4.672,-4.811 5.45,-8.268 h 0.6 c 1.079,3.431 3.183,6.182 6.315,8.249 3.132,2.067 6.828,3.101 11.087,3.101 5.464,0 9.898,-1.742 13.305,-5.225 3.407,-3.483 5.113,-8.28 5.113,-14.394 V 0 H 68.214 v 34.651 c 0,2.882 -0.744,5.08 -2.235,6.596 -1.492,1.516 -3.401,2.274 -5.731,2.274 -2.531,0 -4.517,-0.82 -5.959,-2.461 -1.44,-1.643 -2.16,-3.84 -2.16,-6.597 V 0 H 34.465 v 34.839 c 0,2.681 -0.727,4.798 -2.18,6.351 -1.454,1.554 -3.37,2.331 -5.75,2.331 -2.405,0 -4.366,-0.846 -5.881,-2.538 C 19.136,39.293 18.38,37.02 18.38,34.162 V 0 Z" style="fill:#e85e47;fill-opacity:1;fill-rule:nonzero;stroke:none" id="path5179" />
        </g>
        <g id="g5181" transform="translate(356.8291,281.4289)">
          <path d="m 0,0 c 2.932,0 5.43,0.877 7.497,2.633 2.067,1.753 3.101,4.032 3.101,6.839 v 5.487 C 9.571,14.408 8.124,13.945 6.257,13.569 4.389,13.192 2.605,12.879 0.903,12.629 -4.535,11.802 -7.255,9.547 -7.255,5.864 c 0,-1.905 0.678,-3.357 2.03,-4.36 C -3.872,0.502 -2.131,0 0,0 m -5.676,-12.026 c -5.512,0 -10.054,1.403 -13.624,4.21 -3.569,2.805 -5.355,7.065 -5.355,12.778 0,4.26 0.976,7.647 2.93,10.166 1.957,2.518 4.561,4.384 7.819,5.601 3.257,1.214 6.826,1.985 10.711,2.311 4.935,0.426 8.449,0.951 10.542,1.578 2.093,0.627 3.139,1.818 3.139,3.571 v 0.188 c 0,1.929 -0.664,3.419 -1.993,4.472 -1.327,1.052 -3.118,1.579 -5.375,1.579 -2.429,0 -4.384,-0.527 -5.862,-1.579 -1.48,-1.053 -2.419,-2.505 -2.82,-4.36 l -16.95,0.603 c 0.727,5.261 3.264,9.633 7.61,13.116 4.348,3.482 10.405,5.224 18.174,5.224 4.909,0 9.288,-0.758 13.136,-2.274 3.845,-1.515 6.877,-3.701 9.095,-6.557 2.216,-2.858 3.325,-6.328 3.325,-10.412 V -11.048 H 11.538 v 8.042 h -0.451 c -3.208,-6.014 -8.795,-9.02 -16.763,-9.02" style="fill:#e85e47;fill-opacity:1;fill-rule:nonzero;stroke:none" id="path5183" />
        </g>
        <g id="g5185" transform="translate(469.6191,328.1081)">
          <path d="m 0,0 -10.675,-39.762 h -0.598 L -21.911,0 h -16.401 -2.956 -4.515 c -3.157,0 -6.748,-0.817 -9.128,-2.685 -2.381,-1.867 -3.312,-4.029 -4.365,-7.838 h -0.601 V 0 h -17.851 v -57.727 h 18.376 v 31.344 c 0,3.433 1.091,6.208 3.27,8.325 2.181,2.117 5.798,4.798 12.565,4.94 3.497,0.073 6.062,-0.601 7.059,-0.926 l 14.96,-43.683 H -0.451 L 19.357,0 Z" style="fill:#e85e47;fill-opacity:1;fill-rule:nonzero;stroke:none" id="path5187" />
        </g>
        <path d="M 492.592,328.108 H 510.97 V 270.381 H 492.592 Z" style="fill:#e85e47;fill-opacity:1;fill-rule:nonzero;stroke:none" id="path5189" />
        <g id="g5191" transform="translate(535.4189,303.4157)">
          <path d="M 0,0 V -32.922 H -18.378 V 24.805 H -0.902 V 14.208 h 0.638 c 1.279,3.507 3.458,6.275 6.541,8.306 3.08,2.029 6.753,3.044 11.011,3.044 4.059,0 7.587,-0.903 10.58,-2.706 2.994,-1.804 5.325,-4.336 6.99,-7.592 1.668,-3.257 2.489,-7.053 2.464,-11.387 V -32.922 H 18.942 V 0.264 C 18.966,3.471 18.16,5.978 16.519,7.781 14.877,9.584 12.603,10.487 9.697,10.487 6.791,10.487 4.455,9.559 2.688,7.705 0.92,5.852 0.024,3.283 0,0" style="fill:#e85e47;fill-opacity:1;fill-rule:nonzero;stroke:none" id="path5193" />
        </g>
        <g id="g5195" transform="translate(590.6328,270.5149)">
          <path d="m 0,0 c -2.581,0 -4.8,0.858 -6.653,2.574 -1.854,1.717 -2.781,3.789 -2.781,6.22 0,2.431 0.927,4.498 2.781,6.201 1.853,1.704 4.072,2.557 6.653,2.557 2.605,0 4.83,-0.853 6.671,-2.557 1.842,-1.703 2.762,-3.77 2.762,-6.201 0,-2.431 -0.92,-4.503 -2.762,-6.22 C 4.83,0.858 2.605,0 0,0" style="fill:#e85e47;fill-opacity:1;fill-rule:nonzero;stroke:none" id="path5197" />
        </g>
      </g>
    </g>
  </g>
</svg>
